<svg xmlns="http://www.w3.org/2000/svg"><style>:root svg:not(:target){display:none}</style><svg id="add" viewBox="0 0 24 25"><path fill="#F7F7F7" fill-rule="evenodd" d="M10.5 22.892A1.5 1.5 0 0 0 12 24.39a1.5 1.5 0 0 0 1.5-1.498v-8.993h9A1.5 1.5 0 0 0 24 12.4a1.5 1.5 0 0 0-1.5-1.499h-9V1.908A1.5 1.5 0 0 0 12 .41a1.5 1.5 0 0 0-1.5 1.498v8.993h-9A1.5 1.5 0 0 0 .44 13.46a1.5 1.5 0 0 0 1.06.439h9z" clip-rule="evenodd"/></svg><svg id="arrow-checkbox" viewBox="0 0 15 15"><mask id="path-1-inside-1_18_421" fill="#fff"><path d="M4.998 14.649 0 9.748 9.56 0l4.997 4.901z"/></mask><path fill="#F7F7F7" d="m4.998 14.649-1.4 1.428 1.427 1.4 1.4-1.428zm1.4-1.428L1.4 8.32l-2.8 2.855 4.997 4.902zM13.13 3.5l-9.56 9.747 2.857 2.801 9.559-9.747z" mask="url(#path-1-inside-1_18_421)"/></svg><svg id="arrow-down" viewBox="0 0 9 5"><path stroke="#F7F7F7" stroke-linecap="round" stroke-linejoin="round" d="M4.63 4 1.263 1M8 1 4.63 4"/></svg><svg id="arrow" viewBox="0 0 15 14"><path fill="#F7F7F7" d="M15 5.44v5.992c0 .68-.276 1.334-.767 1.815a2.64 2.64 0 0 1-1.848.753h-5.23v-.856h5.23c.462 0 .905-.181 1.232-.502s.51-.756.511-1.21V5.439c0-.453-.184-.889-.511-1.21a1.76 1.76 0 0 0-1.232-.502H1.669l2.306 2.265-.616.606L0 3.299 3.359 0l.616.605L1.67 2.871h10.716a2.64 2.64 0 0 1 1.848.753 2.55 2.55 0 0 1 .767 1.815"/></svg><svg id="delete" fill="none" viewBox="0 0 18 18"><path stroke="#CDCDCD" d="M3.874 7.615A1.5 1.5 0 0 1 5.37 6h7.26a1.5 1.5 0 0 1 1.496 1.615l-.52 6.75a1.5 1.5 0 0 1-1.495 1.385H5.889a1.5 1.5 0 0 1-1.496-1.385z"/><path stroke="#CDCDCD" stroke-linecap="round" d="M14.625 3.75H3.375"/><path stroke="#CDCDCD" d="M7.5 2.25a.75.75 0 0 1 .75-.75h1.5a.75.75 0 0 1 .75.75v1.5h-3z"/><path stroke="#CDCDCD" stroke-linecap="round" d="M10.5 9v3.75M7.5 9v3.75"/></svg><svg id="fix" fill="none" viewBox="0 0 15 14"><path stroke="#CDCDCD" stroke-linecap="round" stroke-linejoin="round" d="M7.673 3.491 1 10.164V13.5h3.336l6.673-6.673M7.673 3.491l2.392-2.393.002-.001c.33-.33.494-.494.684-.556a.83.83 0 0 1 .516 0c.19.062.355.226.684.555l1.45 1.451c.331.33.496.496.558.686a.83.83 0 0 1 0 .516c-.062.19-.227.355-.556.685h-.001l-2.393 2.393M7.673 3.491l3.336 3.336"/></svg><svg id="moon" viewBox="0 0 22 22"><path fill="#F7F7F7" fill-rule="evenodd" d="M11.125.549a1.1 1.1 0 0 1-.046 1.178 6.61 6.61 0 0 0 9.194 9.194 1.102 1.102 0 0 1 1.723 1C21.52 17.567 16.786 22 11.018 22 4.933 22 0 17.067 0 10.982 0 5.213 4.433.481 10.08.004a1.1 1.1 0 0 1 1.045.545M8.18 2.635a8.82 8.82 0 0 0-5.976 8.347 8.814 8.814 0 0 0 8.814 8.814c3.875 0 7.166-2.5 8.347-5.976A8.814 8.814 0 0 1 8.18 2.634" clip-rule="evenodd"/></svg><svg id="search-white" viewBox="0 0 21 22"><path fill="#F7F7F7" d="m20.777 20.184-4.871-4.872h-.053a8.994 8.994 0 1 0-1.042 1.042v.052l4.872 4.872a.75.75 0 0 0 1.064 0 .75.75 0 0 0 .03-1.094M9.003 16.968a7.495 7.495 0 1 1 0-14.989 7.495 7.495 0 0 1 0 14.99"/></svg><svg id="search" viewBox="0 0 21 22"><path fill="#6C63FF" d="m20.777 20.184-4.871-4.872h-.053a8.994 8.994 0 1 0-1.042 1.042v.052l4.872 4.872a.75.75 0 0 0 1.064 0 .75.75 0 0 0 .03-1.094M9.003 16.968a7.495 7.495 0 1 1 0-14.989 7.495 7.495 0 0 1 0 14.99"/></svg><svg id="sun" viewBox="0 0 22 22"><path fill="#F7F7F7" fill-rule="evenodd" d="M12.158 1.158a1.158 1.158 0 1 0-2.316 0v.58a1.158 1.158 0 1 0 2.316 0zm6.62 3.7a1.158 1.158 0 0 0-1.637-1.636l-.411.41a1.158 1.158 0 0 0 1.637 1.638zM4.858 3.223A1.158 1.158 0 1 0 3.222 4.86l.41.411A1.158 1.158 0 0 0 5.27 3.633zm-3.7 6.62a1.158 1.158 0 1 0 0 2.316h.58a1.158 1.158 0 1 0 0-2.316zm19.103 0a1.158 1.158 0 1 0 0 2.316h.581a1.158 1.158 0 1 0 0-2.316zM5.27 18.367a1.158 1.158 0 1 0-1.637-1.637l-.411.411a1.158 1.158 0 0 0 1.637 1.637zm13.097-1.637a1.157 1.157 0 1 0-1.637 1.637l.41.411a1.158 1.158 0 0 0 1.638-1.637zm-6.21 3.531a1.158 1.158 0 1 0-2.315 0v.581a1.158 1.158 0 0 0 2.316 0zM6.37 11a4.63 4.63 0 1 1 9.262 0 4.63 4.63 0 0 1-9.262 0M11 4.054a6.946 6.946 0 1 0 0 13.892 6.946 6.946 0 0 0 0-13.892" clip-rule="evenodd"/></svg></svg>