<svg xmlns="http://www.w3.org/2000/svg" width="104" height="104" fill="none"><g clip-path="url(#a)"><path fill="#6C63FF" d="M0 0h104v104H0z"/><path fill="#fff" d="M15.118 18.52H60.87v14.018h-2.236l-2.494-9.03q-.258-1.032-.602-1.462-.258-.516-1.118-.602-.86-.172-2.924-.172h-9.718v48.762q0 3.01.258 3.526t1.634.688l4.73.516V77H27.674v-2.236l4.73-.516q1.376-.172 1.634-.688t.258-3.526V21.272h-9.804q-1.978 0-2.924.172-.86.086-1.204.602-.258.43-.516 1.462l-2.494 9.03h-2.236z"/><path fill="#fff" d="M43.128 36.842V34.52h24.424q10.492 0 16.082 6.794 5.59 6.795 5.59 19.178v6.45q0 12.47-5.59 19.264T67.552 93H43.128v-2.236l4.73-.516q1.376-.172 1.634-.688t.258-3.526V41.486q0-3.01-.258-3.526t-1.634-.688zm24.252.43H57.232v52.976H67.38q4.644 0 7.654-1.72t4.472-5.848q1.548-4.215 1.548-11.438v-15.05q0-7.138-1.548-11.266-1.462-4.128-4.472-5.848-3.01-1.806-7.654-1.806"/></g><defs><clipPath id="a"><path fill="#fff" d="M0 0h104v104H0z"/></clipPath></defs></svg>